<mxfile host="app.diagrams.net" modified="2023-10-08T22:57:54.215Z" agent="Mozilla/5.0 (Windows NT 10.0; Win64; x64) AppleWebKit/537.36 (KHTML, like Gecko) Chrome/117.0.0.0 Safari/537.36" etag="27Xt_eL1D4eicEjW4ZSP" version="22.0.4" type="github">
  <diagram name="Page-1" id="2YBvvXClWsGukQMizWep">
    <mxGraphModel dx="700" dy="377" grid="1" gridSize="10" guides="1" tooltips="1" connect="1" arrows="1" fold="1" page="1" pageScale="1" pageWidth="850" pageHeight="1100" math="0" shadow="0">
      <root>
        <mxCell id="0" />
        <mxCell id="1" parent="0" />
        <mxCell id="KeTWmhBXEFS9zP1yrX2H-1" value="" style="html=1;jettySize=18;whiteSpace=wrap;fontSize=13;fontFamily=helvetica;strokeColor=#333333;strokeOpacity=100;dashed=1;fixDash=1;dashPattern=16 6;strokeWidth=0.8;rounded=1;arcSize=24;edgeStyle=orthogonalEdgeStyle;startArrow=none;endArrow=none;exitX=0.5;exitY=1;exitPerimeter=0;lucidId=Yu5MXQ6BOCr2;" edge="1" parent="1">
          <mxGeometry width="100" height="100" relative="1" as="geometry">
            <Array as="points" />
            <mxPoint x="794.44" y="820" as="targetPoint" />
            <mxPoint x="794.44" y="763" as="sourcePoint" />
          </mxGeometry>
        </mxCell>
        <mxCell id="KeTWmhBXEFS9zP1yrX2H-2" value="Interfaz de Usuario" style="html=1;overflow=block;blockSpacing=1;whiteSpace=wrap;fontSize=13.3;fontColor=#000000;fontStyle=6;align=center;spacing=0;strokeOpacity=0;fillOpacity=100;rounded=1;absoluteArcSize=1;arcSize=12;fillColor=#fa6800;strokeWidth=0.8;strokeColor=#C73500;" vertex="1" parent="1">
          <mxGeometry x="458.5" y="165" width="143" height="90" as="geometry" />
        </mxCell>
        <mxCell id="KeTWmhBXEFS9zP1yrX2H-3" value="Sistema" style="html=1;overflow=block;blockSpacing=1;whiteSpace=wrap;fontSize=13.3;fontColor=#000000;fontStyle=6;align=center;spacing=0;strokeOpacity=0;fillOpacity=100;rounded=1;absoluteArcSize=1;arcSize=12;fillColor=#fa6800;strokeWidth=0.8;strokeColor=#C73500;" vertex="1" parent="1">
          <mxGeometry x="723" y="165" width="143" height="90" as="geometry" />
        </mxCell>
        <mxCell id="KeTWmhBXEFS9zP1yrX2H-4" value="Base de datos" style="html=1;overflow=block;blockSpacing=1;whiteSpace=wrap;fontSize=13.3;fontColor=#000000;fontStyle=6;align=center;spacing=0;strokeOpacity=0;fillOpacity=100;rounded=1;absoluteArcSize=1;arcSize=12;fillColor=#fa6800;strokeWidth=0.8;strokeColor=#C73500;" vertex="1" parent="1">
          <mxGeometry x="994" y="165" width="143" height="90" as="geometry" />
        </mxCell>
        <mxCell id="KeTWmhBXEFS9zP1yrX2H-5" value="Administrador" style="html=1;overflow=block;blockSpacing=1;shape=umlActor;labelPosition=center;verticalLabelPosition=bottom;verticalAlign=top;whiteSpace=nowrap;fontSize=13.3;fontColor=#333333;fontStyle=2;align=center;spacing=0;strokeColor=#333333;strokeOpacity=100;fillOpacity=100;rounded=1;absoluteArcSize=1;arcSize=12;fillColor=#ffffff;strokeWidth=0.8;lucidId=Yu5MdgyV5tNR;" vertex="1" parent="1">
          <mxGeometry x="258" y="165" width="60" height="135" as="geometry" />
        </mxCell>
        <mxCell id="KeTWmhBXEFS9zP1yrX2H-7" value="" style="html=1;jettySize=18;whiteSpace=wrap;fontSize=13;strokeColor=#333333;strokeOpacity=100;strokeWidth=0.8;rounded=1;arcSize=10;edgeStyle=orthogonalEdgeStyle;startArrow=none;endArrow=block;endFill=1;lucidId=Yu5M0A2JVvTe;" edge="1" parent="1">
          <mxGeometry width="100" height="100" relative="1" as="geometry">
            <Array as="points" />
            <mxPoint x="290" y="372" as="sourcePoint" />
            <mxPoint x="507" y="373" as="targetPoint" />
          </mxGeometry>
        </mxCell>
        <mxCell id="KeTWmhBXEFS9zP1yrX2H-8" value="VerSolicitudes()" style="text;html=1;resizable=0;labelBackgroundColor=default;align=center;verticalAlign=middle;fontStyle=2;fontColor=#333333;fontSize=13.3;" vertex="1" parent="KeTWmhBXEFS9zP1yrX2H-7">
          <mxGeometry relative="1" as="geometry">
            <mxPoint as="offset" />
          </mxGeometry>
        </mxCell>
        <mxCell id="KeTWmhBXEFS9zP1yrX2H-9" value="" style="html=1;jettySize=18;whiteSpace=wrap;fontSize=13;strokeColor=#333333;strokeOpacity=100;strokeWidth=0.8;rounded=1;arcSize=10;edgeStyle=orthogonalEdgeStyle;startArrow=none;endArrow=block;endFill=1;exitX=1.012;exitY=0.429;exitPerimeter=0;lucidId=Yu5M8hheeUyh;" edge="1" parent="1">
          <mxGeometry width="100" height="100" relative="1" as="geometry">
            <Array as="points">
              <mxPoint x="769.5" y="400" />
              <mxPoint x="789.5" y="400" />
            </Array>
            <mxPoint x="549.7200000000001" y="400.4060000000002" as="sourcePoint" />
            <mxPoint x="779.5" y="400" as="targetPoint" />
          </mxGeometry>
        </mxCell>
        <mxCell id="KeTWmhBXEFS9zP1yrX2H-10" value="EnvÃ­a solicitud para&lt;br&gt;mostrar solicitudes" style="text;html=1;resizable=0;labelBackgroundColor=default;align=center;verticalAlign=middle;fontStyle=2;fontColor=#333333;fontSize=13.3;" vertex="1" parent="KeTWmhBXEFS9zP1yrX2H-9">
          <mxGeometry relative="1" as="geometry">
            <mxPoint as="offset" />
          </mxGeometry>
        </mxCell>
        <mxCell id="KeTWmhBXEFS9zP1yrX2H-11" value="" style="html=1;jettySize=18;whiteSpace=wrap;fontSize=13;strokeColor=#333333;strokeOpacity=100;dashed=1;fixDash=1;dashPattern=16 6;strokeWidth=0.8;rounded=1;arcSize=10;edgeStyle=orthogonalEdgeStyle;startArrow=none;endArrow=none;exitX=0.5;exitY=0.532;exitPerimeter=0;lucidId=Yu5Migy3NWk_;" edge="1" parent="1" source="KeTWmhBXEFS9zP1yrX2H-17" target="KeTWmhBXEFS9zP1yrX2H-12">
          <mxGeometry width="100" height="100" relative="1" as="geometry">
            <Array as="points" />
            <mxPoint x="290" y="872" as="targetPoint" />
            <mxPoint x="288" y="265" as="sourcePoint" />
          </mxGeometry>
        </mxCell>
        <mxCell id="KeTWmhBXEFS9zP1yrX2H-13" value="" style="html=1;jettySize=18;whiteSpace=wrap;fontSize=13;strokeColor=#333333;strokeOpacity=100;dashed=1;fixDash=1;dashPattern=16 6;strokeWidth=0.8;rounded=1;arcSize=10;edgeStyle=orthogonalEdgeStyle;startArrow=none;endArrow=none;lucidId=Yu5Migy3NWk_;" edge="1" parent="1" source="KeTWmhBXEFS9zP1yrX2H-12" target="KeTWmhBXEFS9zP1yrX2H-14">
          <mxGeometry width="100" height="100" relative="1" as="geometry">
            <Array as="points" />
            <mxPoint x="293" y="958" as="targetPoint" />
            <mxPoint x="288" y="680" as="sourcePoint" />
          </mxGeometry>
        </mxCell>
        <mxCell id="KeTWmhBXEFS9zP1yrX2H-14" value="" style="html=1;overflow=block;blockSpacing=1;whiteSpace=wrap;fontSize=13;spacing=0;strokeColor=#f2f2f2;strokeOpacity=100;fillOpacity=100;rounded=1;absoluteArcSize=1;arcSize=12;fillColor=#ced4db;strokeWidth=0.8;lucidId=Yu5MydJHa4al;" vertex="1" parent="1">
          <mxGeometry x="273" y="804" width="30" height="90" as="geometry" />
        </mxCell>
        <mxCell id="KeTWmhBXEFS9zP1yrX2H-15" value="" style="html=1;jettySize=18;whiteSpace=wrap;fontSize=13;fontFamily=helvetica;strokeColor=#333333;strokeOpacity=100;dashed=1;fixDash=1;dashPattern=16 6;strokeWidth=0.8;rounded=0;startArrow=none;endArrow=none;exitX=0.5;exitY=1;exitPerimeter=0;entryX=0.5;entryY=0;lucidId=Yu5M4GIAFP0a;entryDx=0;entryDy=0;" edge="1" parent="1" source="KeTWmhBXEFS9zP1yrX2H-36" target="KeTWmhBXEFS9zP1yrX2H-37">
          <mxGeometry width="100" height="100" relative="1" as="geometry">
            <Array as="points" />
            <mxPoint x="525" y="255" as="sourcePoint" />
            <mxPoint x="524.5" y="456.40800000000013" as="targetPoint" />
          </mxGeometry>
        </mxCell>
        <mxCell id="KeTWmhBXEFS9zP1yrX2H-16" value="" style="html=1;jettySize=18;whiteSpace=wrap;fontSize=13;strokeColor=#333333;strokeOpacity=100;dashed=1;fixDash=1;dashPattern=16 6;strokeWidth=0.8;rounded=1;arcSize=10;edgeStyle=orthogonalEdgeStyle;startArrow=none;endArrow=none;exitX=0.5;exitY=0.532;exitPerimeter=0;lucidId=Yu5Migy3NWk_;" edge="1" parent="1" source="KeTWmhBXEFS9zP1yrX2H-5" target="KeTWmhBXEFS9zP1yrX2H-17">
          <mxGeometry width="100" height="100" relative="1" as="geometry">
            <Array as="points" />
            <mxPoint x="293" y="593" as="targetPoint" />
            <mxPoint x="288" y="265" as="sourcePoint" />
          </mxGeometry>
        </mxCell>
        <mxCell id="KeTWmhBXEFS9zP1yrX2H-17" value="" style="html=1;overflow=block;blockSpacing=1;whiteSpace=wrap;fontSize=13;spacing=0;strokeColor=#f2f2f2;strokeOpacity=100;fillOpacity=100;rounded=1;absoluteArcSize=1;arcSize=12;fillColor=#ced4db;strokeWidth=0.8;lucidId=Yu5MhR-oMSno;" vertex="1" parent="1">
          <mxGeometry x="273" y="369" width="30" height="181" as="geometry" />
        </mxCell>
        <mxCell id="KeTWmhBXEFS9zP1yrX2H-18" value="" style="html=1;jettySize=18;whiteSpace=wrap;fontSize=13;fontFamily=helvetica;strokeColor=#333333;strokeOpacity=100;dashed=1;fixDash=1;dashPattern=16 6;strokeWidth=0.8;rounded=0;startArrow=none;endArrow=none;exitX=0.5;exitY=1;exitPerimeter=0;entryX=0.5;entryY=0.432;entryPerimeter=0;lucidId=Yu5M4GIAFP0a;" edge="1" parent="1">
          <mxGeometry width="100" height="100" relative="1" as="geometry">
            <Array as="points" />
            <mxPoint x="798" y="255" as="sourcePoint" />
            <mxPoint x="798" y="390" as="targetPoint" />
          </mxGeometry>
        </mxCell>
        <mxCell id="KeTWmhBXEFS9zP1yrX2H-19" value="" style="points=[[1.013,0.586,0]];html=1;overflow=block;blockSpacing=1;whiteSpace=wrap;fontSize=13;spacing=0;strokeColor=#f2f2f2;strokeOpacity=100;fillOpacity=100;rounded=1;absoluteArcSize=1;arcSize=12;fillColor=#ced4db;strokeWidth=0.8;lucidId=Yu5MsRc69goB;" vertex="1" parent="1">
          <mxGeometry x="779.5" y="345" width="30" height="195" as="geometry" />
        </mxCell>
        <mxCell id="KeTWmhBXEFS9zP1yrX2H-20" value="" style="html=1;jettySize=18;whiteSpace=wrap;fontSize=13;fontFamily=helvetica;strokeColor=#333333;strokeOpacity=100;strokeWidth=0.8;rounded=0;startArrow=none;endArrow=block;endFill=1;exitX=-0.047;exitY=0.64;lucidId=Yu5MB3FtIlV_;exitDx=0;exitDy=0;exitPerimeter=0;" edge="1" parent="1">
          <mxGeometry width="100" height="100" relative="1" as="geometry">
            <Array as="points" />
            <mxPoint x="779.4999999999999" y="478.08000000000004" as="sourcePoint" />
            <mxPoint x="551.41" y="479" as="targetPoint" />
          </mxGeometry>
        </mxCell>
        <mxCell id="KeTWmhBXEFS9zP1yrX2H-22" value="&lt;div style=&quot;text-align: center;&quot;&gt;&lt;font color=&quot;#333333&quot;&gt;&lt;span style=&quot;font-size: 13px; background-color: rgb(255, 255, 255);&quot;&gt;&lt;i&gt;Respuesta de Solicitudes&lt;/i&gt;&lt;/span&gt;&lt;/font&gt;&lt;/div&gt;" style="text;whiteSpace=wrap;html=1;" vertex="1" parent="1">
          <mxGeometry x="596.4100244140625" y="449" width="128" height="38" as="geometry" />
        </mxCell>
        <mxCell id="KeTWmhBXEFS9zP1yrX2H-23" value="" style="html=1;overflow=block;blockSpacing=1;whiteSpace=wrap;fontSize=13;spacing=0;strokeColor=#f2f2f2;strokeOpacity=100;fillOpacity=100;rounded=1;absoluteArcSize=1;arcSize=12;fillColor=#ced4db;strokeWidth=0.8;lucidId=Yu5MydJHa4al;" vertex="1" parent="1">
          <mxGeometry x="515" y="657" width="30" height="90" as="geometry" />
        </mxCell>
        <mxCell id="KeTWmhBXEFS9zP1yrX2H-24" value="" style="html=1;overflow=block;blockSpacing=1;whiteSpace=wrap;fontSize=13;spacing=0;strokeColor=#f2f2f2;strokeOpacity=100;fillOpacity=100;rounded=1;absoluteArcSize=1;arcSize=12;fillColor=#ced4db;strokeWidth=0.8;lucidId=Yu5MydJHa4al;" vertex="1" parent="1">
          <mxGeometry x="779.5" y="649" width="30" height="113" as="geometry" />
        </mxCell>
        <mxCell id="KeTWmhBXEFS9zP1yrX2H-27" value="" style="html=1;jettySize=18;whiteSpace=wrap;fontSize=13;fontFamily=helvetica;strokeColor=#333333;strokeOpacity=100;dashed=1;fixDash=1;dashPattern=16 6;strokeWidth=0.8;rounded=1;arcSize=24;edgeStyle=orthogonalEdgeStyle;startArrow=none;endArrow=none;exitX=0.5;exitY=1;exitPerimeter=0;lucidId=Yu5M5Qxgzhy9;" edge="1" parent="1" source="KeTWmhBXEFS9zP1yrX2H-53" target="KeTWmhBXEFS9zP1yrX2H-28">
          <mxGeometry width="100" height="100" relative="1" as="geometry">
            <Array as="points" />
            <mxPoint x="1065" y="947" as="targetPoint" />
            <mxPoint x="1066" y="255" as="sourcePoint" />
          </mxGeometry>
        </mxCell>
        <mxCell id="KeTWmhBXEFS9zP1yrX2H-28" value="" style="html=1;overflow=block;blockSpacing=1;whiteSpace=wrap;fontSize=13;spacing=0;strokeColor=#f2f2f2;strokeOpacity=100;fillOpacity=100;rounded=1;absoluteArcSize=1;arcSize=12;fillColor=#ced4db;strokeWidth=0.8;lucidId=Yu5MydJHa4al;" vertex="1" parent="1">
          <mxGeometry x="1047" y="668" width="30" height="79" as="geometry" />
        </mxCell>
        <mxCell id="KeTWmhBXEFS9zP1yrX2H-29" value="" style="html=1;jettySize=18;whiteSpace=wrap;fontSize=13;strokeColor=#333333;strokeOpacity=100;strokeWidth=0.8;rounded=1;arcSize=10;edgeStyle=orthogonalEdgeStyle;startArrow=none;endArrow=block;endFill=1;lucidId=Yu5M0A2JVvTe;" edge="1" parent="1">
          <mxGeometry width="100" height="100" relative="1" as="geometry">
            <Array as="points" />
            <mxPoint x="813" y="730" as="sourcePoint" />
            <mxPoint x="1030" y="731" as="targetPoint" />
          </mxGeometry>
        </mxCell>
        <mxCell id="KeTWmhBXEFS9zP1yrX2H-30" value="Se actualiza estado&amp;nbsp;&lt;br&gt;de solicitud" style="text;html=1;resizable=0;labelBackgroundColor=default;align=center;verticalAlign=middle;fontStyle=2;fontColor=#333333;fontSize=13.3;" vertex="1" parent="KeTWmhBXEFS9zP1yrX2H-29">
          <mxGeometry relative="1" as="geometry">
            <mxPoint as="offset" />
          </mxGeometry>
        </mxCell>
        <mxCell id="KeTWmhBXEFS9zP1yrX2H-33" value="" style="endArrow=none;dashed=1;html=1;dashPattern=1 3;strokeWidth=2;rounded=0;entryX=0.5;entryY=1;entryDx=0;entryDy=0;exitX=0.5;exitY=0;exitDx=0;exitDy=0;" edge="1" parent="1" source="KeTWmhBXEFS9zP1yrX2H-23" target="KeTWmhBXEFS9zP1yrX2H-37">
          <mxGeometry width="50" height="50" relative="1" as="geometry">
            <mxPoint x="499.5" y="652" as="sourcePoint" />
            <mxPoint x="524.5" y="595" as="targetPoint" />
          </mxGeometry>
        </mxCell>
        <mxCell id="KeTWmhBXEFS9zP1yrX2H-34" value="" style="endArrow=none;dashed=1;html=1;rounded=0;exitX=0.5;exitY=0;exitDx=0;exitDy=0;" edge="1" parent="1" source="KeTWmhBXEFS9zP1yrX2H-24" target="KeTWmhBXEFS9zP1yrX2H-19">
          <mxGeometry width="50" height="50" relative="1" as="geometry">
            <mxPoint x="747" y="671" as="sourcePoint" />
            <mxPoint x="797" y="621" as="targetPoint" />
          </mxGeometry>
        </mxCell>
        <mxCell id="KeTWmhBXEFS9zP1yrX2H-35" value="" style="html=1;jettySize=18;whiteSpace=wrap;fontSize=13;fontFamily=helvetica;strokeColor=#333333;strokeOpacity=100;dashed=1;fixDash=1;dashPattern=16 6;strokeWidth=0.8;rounded=0;startArrow=none;endArrow=none;exitX=0.5;exitY=1;exitPerimeter=0;entryX=0.5;entryY=0.432;entryPerimeter=0;lucidId=Yu5M4GIAFP0a;" edge="1" parent="1" source="KeTWmhBXEFS9zP1yrX2H-2" target="KeTWmhBXEFS9zP1yrX2H-36">
          <mxGeometry width="100" height="100" relative="1" as="geometry">
            <Array as="points" />
            <mxPoint x="525" y="255" as="sourcePoint" />
            <mxPoint x="524.5" y="456.40800000000013" as="targetPoint" />
          </mxGeometry>
        </mxCell>
        <mxCell id="KeTWmhBXEFS9zP1yrX2H-36" value="" style="html=1;overflow=block;blockSpacing=1;whiteSpace=wrap;fontSize=13;spacing=0;strokeColor=#f2f2f2;strokeOpacity=100;fillOpacity=100;rounded=1;absoluteArcSize=1;arcSize=12;fillColor=#ced4db;strokeWidth=0.8;lucidId=Yu5MydJHa4al;" vertex="1" parent="1">
          <mxGeometry x="515" y="340" width="30" height="90" as="geometry" />
        </mxCell>
        <mxCell id="KeTWmhBXEFS9zP1yrX2H-37" value="" style="html=1;overflow=block;blockSpacing=1;whiteSpace=wrap;fontSize=13;spacing=0;strokeColor=#f2f2f2;strokeOpacity=100;fillOpacity=100;rounded=1;absoluteArcSize=1;arcSize=12;fillColor=#ced4db;strokeWidth=0.8;lucidId=Yu5MydJHa4al;" vertex="1" parent="1">
          <mxGeometry x="515" y="449" width="30" height="90" as="geometry" />
        </mxCell>
        <mxCell id="KeTWmhBXEFS9zP1yrX2H-41" value="" style="html=1;overflow=block;blockSpacing=1;whiteSpace=wrap;fontSize=13;spacing=0;strokeColor=#f2f2f2;strokeOpacity=100;fillOpacity=100;rounded=1;absoluteArcSize=1;arcSize=12;fillColor=#ced4db;strokeWidth=0.8;lucidId=Yu5MydJHa4al;" vertex="1" parent="1">
          <mxGeometry x="515" y="804" width="30" height="90" as="geometry" />
        </mxCell>
        <mxCell id="KeTWmhBXEFS9zP1yrX2H-42" value="" style="html=1;overflow=block;blockSpacing=1;whiteSpace=wrap;fontSize=13;spacing=0;strokeColor=#f2f2f2;strokeOpacity=100;fillOpacity=100;rounded=1;absoluteArcSize=1;arcSize=12;fillColor=#ced4db;strokeWidth=0.8;lucidId=Yu5MydJHa4al;" vertex="1" parent="1">
          <mxGeometry x="779.5" y="804" width="30" height="90" as="geometry" />
        </mxCell>
        <mxCell id="KeTWmhBXEFS9zP1yrX2H-45" value="" style="endArrow=none;dashed=1;html=1;rounded=0;entryX=0.5;entryY=1;entryDx=0;entryDy=0;" edge="1" parent="1" target="KeTWmhBXEFS9zP1yrX2H-23">
          <mxGeometry width="50" height="50" relative="1" as="geometry">
            <mxPoint x="530" y="800" as="sourcePoint" />
            <mxPoint x="530" y="744" as="targetPoint" />
          </mxGeometry>
        </mxCell>
        <mxCell id="KeTWmhBXEFS9zP1yrX2H-46" value="" style="endArrow=none;dashed=1;html=1;rounded=0;entryX=0.5;entryY=1;entryDx=0;entryDy=0;" edge="1" parent="1">
          <mxGeometry width="50" height="50" relative="1" as="geometry">
            <mxPoint x="794" y="919" as="sourcePoint" />
            <mxPoint x="793.8299999999999" y="887" as="targetPoint" />
          </mxGeometry>
        </mxCell>
        <mxCell id="KeTWmhBXEFS9zP1yrX2H-47" value="" style="html=1;jettySize=18;whiteSpace=wrap;fontSize=13;strokeColor=#333333;strokeOpacity=100;strokeWidth=0.8;rounded=1;arcSize=10;edgeStyle=orthogonalEdgeStyle;startArrow=none;endArrow=block;endFill=1;lucidId=Yu5M8hheeUyh;" edge="1" parent="1">
          <mxGeometry width="100" height="100" relative="1" as="geometry">
            <Array as="points">
              <mxPoint x="497" y="680" />
            </Array>
            <mxPoint x="290" y="680" as="sourcePoint" />
            <mxPoint x="510" y="680" as="targetPoint" />
          </mxGeometry>
        </mxCell>
        <mxCell id="KeTWmhBXEFS9zP1yrX2H-48" value="AceptarSolicitud()" style="text;html=1;resizable=0;labelBackgroundColor=default;align=center;verticalAlign=middle;fontStyle=2;fontColor=#333333;fontSize=13.3;" vertex="1" parent="KeTWmhBXEFS9zP1yrX2H-47">
          <mxGeometry relative="1" as="geometry">
            <mxPoint x="5" y="-9" as="offset" />
          </mxGeometry>
        </mxCell>
        <mxCell id="KeTWmhBXEFS9zP1yrX2H-54" value="" style="html=1;jettySize=18;whiteSpace=wrap;fontSize=13;fontFamily=helvetica;strokeColor=#333333;strokeOpacity=100;dashed=1;fixDash=1;dashPattern=16 6;strokeWidth=0.8;rounded=1;arcSize=24;edgeStyle=orthogonalEdgeStyle;startArrow=none;endArrow=none;exitX=0.5;exitY=1;exitPerimeter=0;lucidId=Yu5M5Qxgzhy9;" edge="1" parent="1" source="KeTWmhBXEFS9zP1yrX2H-4" target="KeTWmhBXEFS9zP1yrX2H-53">
          <mxGeometry width="100" height="100" relative="1" as="geometry">
            <Array as="points" />
            <mxPoint x="1062" y="641" as="targetPoint" />
            <mxPoint x="1066" y="255" as="sourcePoint" />
          </mxGeometry>
        </mxCell>
        <mxCell id="KeTWmhBXEFS9zP1yrX2H-53" value="" style="html=1;overflow=block;blockSpacing=1;whiteSpace=wrap;fontSize=13;spacing=0;strokeColor=#f2f2f2;strokeOpacity=100;fillOpacity=100;rounded=1;absoluteArcSize=1;arcSize=12;fillColor=#ced4db;strokeWidth=0.8;lucidId=Yu5MydJHa4al;" vertex="1" parent="1">
          <mxGeometry x="1047" y="390" width="30" height="122" as="geometry" />
        </mxCell>
        <mxCell id="KeTWmhBXEFS9zP1yrX2H-55" value="" style="html=1;jettySize=18;whiteSpace=wrap;fontSize=13;strokeColor=#333333;strokeOpacity=100;strokeWidth=0.8;rounded=1;arcSize=10;edgeStyle=orthogonalEdgeStyle;startArrow=none;endArrow=block;endFill=1;exitX=1.012;exitY=0.429;exitPerimeter=0;lucidId=Yu5M8hheeUyh;" edge="1" parent="1">
          <mxGeometry width="100" height="100" relative="1" as="geometry">
            <Array as="points">
              <mxPoint x="1029.28" y="440" />
              <mxPoint x="1049.28" y="440" />
            </Array>
            <mxPoint x="809.5000000000001" y="440.4060000000002" as="sourcePoint" />
            <mxPoint x="1039.28" y="440" as="targetPoint" />
          </mxGeometry>
        </mxCell>
        <mxCell id="KeTWmhBXEFS9zP1yrX2H-56" value="Se buscan Solicitudes&lt;br&gt;pendientes" style="text;html=1;resizable=0;labelBackgroundColor=default;align=center;verticalAlign=middle;fontStyle=2;fontColor=#333333;fontSize=13.3;" vertex="1" parent="KeTWmhBXEFS9zP1yrX2H-55">
          <mxGeometry relative="1" as="geometry">
            <mxPoint as="offset" />
          </mxGeometry>
        </mxCell>
        <mxCell id="KeTWmhBXEFS9zP1yrX2H-57" value="" style="html=1;jettySize=18;whiteSpace=wrap;fontSize=13;fontFamily=helvetica;strokeColor=#333333;strokeOpacity=100;strokeWidth=0.8;rounded=0;startArrow=none;endArrow=block;endFill=1;exitX=-0.011;exitY=0.804;lucidId=Yu5MB3FtIlV_;exitDx=0;exitDy=0;exitPerimeter=0;" edge="1" parent="1">
          <mxGeometry width="100" height="100" relative="1" as="geometry">
            <Array as="points" />
            <mxPoint x="515.0000000000001" y="511.36" as="sourcePoint" />
            <mxPoint x="303.3299999999999" y="510" as="targetPoint" />
          </mxGeometry>
        </mxCell>
        <mxCell id="KeTWmhBXEFS9zP1yrX2H-58" value="&lt;div style=&quot;text-align: center;&quot;&gt;&lt;font color=&quot;#333333&quot;&gt;&lt;span style=&quot;font-size: 13px; background-color: rgb(255, 255, 255);&quot;&gt;&lt;i&gt;Se muestran las solicitudes&lt;/i&gt;&lt;/span&gt;&lt;/font&gt;&lt;/div&gt;" style="text;whiteSpace=wrap;html=1;" vertex="1" parent="1">
          <mxGeometry x="348.33002441406245" y="480" width="128" height="38" as="geometry" />
        </mxCell>
        <mxCell id="KeTWmhBXEFS9zP1yrX2H-59" value="" style="html=1;jettySize=18;whiteSpace=wrap;fontSize=13;strokeColor=#333333;strokeOpacity=100;dashed=1;fixDash=1;dashPattern=16 6;strokeWidth=0.8;rounded=1;arcSize=10;edgeStyle=orthogonalEdgeStyle;startArrow=none;endArrow=none;lucidId=Yu5Migy3NWk_;" edge="1" parent="1" target="KeTWmhBXEFS9zP1yrX2H-12">
          <mxGeometry width="100" height="100" relative="1" as="geometry">
            <Array as="points" />
            <mxPoint x="288" y="804" as="targetPoint" />
            <mxPoint x="288" y="680" as="sourcePoint" />
          </mxGeometry>
        </mxCell>
        <mxCell id="KeTWmhBXEFS9zP1yrX2H-12" value="" style="html=1;overflow=block;blockSpacing=1;whiteSpace=wrap;fontSize=13;spacing=0;strokeColor=#f2f2f2;strokeOpacity=100;fillOpacity=100;rounded=1;absoluteArcSize=1;arcSize=12;fillColor=#ced4db;strokeWidth=0.8;lucidId=Yu5MydJHa4al;" vertex="1" parent="1">
          <mxGeometry x="273" y="641" width="30" height="90" as="geometry" />
        </mxCell>
        <mxCell id="KeTWmhBXEFS9zP1yrX2H-60" value="" style="html=1;jettySize=18;whiteSpace=wrap;fontSize=13;strokeColor=#333333;strokeOpacity=100;strokeWidth=0.8;rounded=1;arcSize=10;edgeStyle=orthogonalEdgeStyle;startArrow=none;endArrow=block;endFill=1;lucidId=Yu5M8hheeUyh;" edge="1" parent="1">
          <mxGeometry width="100" height="100" relative="1" as="geometry">
            <Array as="points">
              <mxPoint x="509.33" y="830" />
            </Array>
            <mxPoint x="302.33" y="830" as="sourcePoint" />
            <mxPoint x="522.33" y="830" as="targetPoint" />
          </mxGeometry>
        </mxCell>
        <mxCell id="KeTWmhBXEFS9zP1yrX2H-61" value="RechazarSolicitud()" style="text;html=1;resizable=0;labelBackgroundColor=default;align=center;verticalAlign=middle;fontStyle=2;fontColor=#333333;fontSize=13.3;" vertex="1" parent="KeTWmhBXEFS9zP1yrX2H-60">
          <mxGeometry relative="1" as="geometry">
            <mxPoint x="5" y="-9" as="offset" />
          </mxGeometry>
        </mxCell>
        <mxCell id="KeTWmhBXEFS9zP1yrX2H-62" value="ChatBot" style="html=1;overflow=block;blockSpacing=1;whiteSpace=wrap;fontSize=13.3;fontColor=#000000;fontStyle=6;align=center;spacing=0;strokeOpacity=0;fillOpacity=100;rounded=1;absoluteArcSize=1;arcSize=12;fillColor=#fa6800;strokeWidth=0.8;strokeColor=#C73500;" vertex="1" parent="1">
          <mxGeometry x="1250" y="165" width="143" height="90" as="geometry" />
        </mxCell>
        <mxCell id="KeTWmhBXEFS9zP1yrX2H-66" value="Alumno/Tutor" style="html=1;overflow=block;blockSpacing=1;shape=umlActor;labelPosition=center;verticalLabelPosition=bottom;verticalAlign=top;whiteSpace=nowrap;fontSize=13.3;fontColor=#333333;fontStyle=2;align=center;spacing=0;strokeColor=#333333;strokeOpacity=100;fillOpacity=100;rounded=1;absoluteArcSize=1;arcSize=12;fillColor=#ffffff;strokeWidth=0.8;lucidId=Yu5MdgyV5tNR;" vertex="1" parent="1">
          <mxGeometry x="1520" y="190" width="60" height="135" as="geometry" />
        </mxCell>
        <mxCell id="KeTWmhBXEFS9zP1yrX2H-67" value="" style="html=1;jettySize=18;whiteSpace=wrap;fontSize=13;strokeColor=#333333;strokeOpacity=100;dashed=1;fixDash=1;dashPattern=16 6;strokeWidth=0.8;rounded=1;arcSize=10;edgeStyle=orthogonalEdgeStyle;startArrow=none;endArrow=none;exitX=0.5;exitY=0.532;exitPerimeter=0;lucidId=Yu5Migy3NWk_;entryX=0.5;entryY=0;entryDx=0;entryDy=0;" edge="1" source="KeTWmhBXEFS9zP1yrX2H-66" target="KeTWmhBXEFS9zP1yrX2H-81" parent="1">
          <mxGeometry width="100" height="100" relative="1" as="geometry">
            <Array as="points" />
            <mxPoint x="1555" y="618" as="targetPoint" />
            <mxPoint x="1550" y="290" as="sourcePoint" />
          </mxGeometry>
        </mxCell>
        <mxCell id="KeTWmhBXEFS9zP1yrX2H-68" value="" style="html=1;overflow=block;blockSpacing=1;whiteSpace=wrap;fontSize=13;spacing=0;strokeColor=#f2f2f2;strokeOpacity=100;fillOpacity=100;rounded=1;absoluteArcSize=1;arcSize=12;fillColor=#ced4db;strokeWidth=0.8;lucidId=Yu5MhR-oMSno;" vertex="1" parent="1">
          <mxGeometry x="1535" y="640" width="30" height="81" as="geometry" />
        </mxCell>
        <mxCell id="KeTWmhBXEFS9zP1yrX2H-69" value="" style="html=1;jettySize=18;whiteSpace=wrap;fontSize=13;fontFamily=helvetica;strokeColor=#333333;strokeOpacity=100;dashed=1;fixDash=1;dashPattern=16 6;strokeWidth=0.8;rounded=0;startArrow=none;endArrow=none;exitX=0.5;exitY=1;exitPerimeter=0;lucidId=Yu5M4GIAFP0a;" edge="1" parent="1" target="KeTWmhBXEFS9zP1yrX2H-70">
          <mxGeometry width="100" height="100" relative="1" as="geometry">
            <Array as="points" />
            <mxPoint x="1325" y="255" as="sourcePoint" />
            <mxPoint x="1325" y="390" as="targetPoint" />
          </mxGeometry>
        </mxCell>
        <mxCell id="KeTWmhBXEFS9zP1yrX2H-70" value="" style="points=[[1.013,0.586,0]];html=1;overflow=block;blockSpacing=1;whiteSpace=wrap;fontSize=13;spacing=0;strokeColor=#f2f2f2;strokeOpacity=100;fillOpacity=100;rounded=1;absoluteArcSize=1;arcSize=12;fillColor=#ced4db;strokeWidth=0.8;lucidId=Yu5MsRc69goB;" vertex="1" parent="1">
          <mxGeometry x="1306.5" y="640" width="30" height="80" as="geometry" />
        </mxCell>
        <mxCell id="KeTWmhBXEFS9zP1yrX2H-73" value="" style="html=1;overflow=block;blockSpacing=1;whiteSpace=wrap;fontSize=13;spacing=0;strokeColor=#f2f2f2;strokeOpacity=100;fillOpacity=100;rounded=1;absoluteArcSize=1;arcSize=12;fillColor=#ced4db;strokeWidth=0.8;lucidId=Yu5MydJHa4al;" vertex="1" parent="1">
          <mxGeometry x="1047" y="810" width="30" height="80" as="geometry" />
        </mxCell>
        <mxCell id="KeTWmhBXEFS9zP1yrX2H-75" value="" style="html=1;jettySize=18;whiteSpace=wrap;fontSize=13;fontFamily=helvetica;strokeColor=#333333;strokeOpacity=100;dashed=1;fixDash=1;dashPattern=16 6;strokeWidth=0.8;rounded=1;arcSize=24;edgeStyle=orthogonalEdgeStyle;startArrow=none;endArrow=none;lucidId=Yu5M5Qxgzhy9;" edge="1" parent="1">
          <mxGeometry width="100" height="100" relative="1" as="geometry">
            <Array as="points" />
            <mxPoint x="1061.17" y="819" as="targetPoint" />
            <mxPoint x="1061" y="750" as="sourcePoint" />
          </mxGeometry>
        </mxCell>
        <mxCell id="KeTWmhBXEFS9zP1yrX2H-76" value="" style="html=1;jettySize=18;whiteSpace=wrap;fontSize=13;strokeColor=#333333;strokeOpacity=100;strokeWidth=0.8;rounded=1;arcSize=10;edgeStyle=orthogonalEdgeStyle;startArrow=none;endArrow=block;endFill=1;lucidId=Yu5M0A2JVvTe;" edge="1" parent="1">
          <mxGeometry width="100" height="100" relative="1" as="geometry">
            <Array as="points" />
            <mxPoint x="823" y="870" as="sourcePoint" />
            <mxPoint x="1040" y="871" as="targetPoint" />
          </mxGeometry>
        </mxCell>
        <mxCell id="KeTWmhBXEFS9zP1yrX2H-77" value="Se actualiza estado&amp;nbsp;&lt;br&gt;de solicitud" style="text;html=1;resizable=0;labelBackgroundColor=default;align=center;verticalAlign=middle;fontStyle=2;fontColor=#333333;fontSize=13.3;" vertex="1" parent="KeTWmhBXEFS9zP1yrX2H-76">
          <mxGeometry relative="1" as="geometry">
            <mxPoint as="offset" />
          </mxGeometry>
        </mxCell>
        <mxCell id="KeTWmhBXEFS9zP1yrX2H-79" value="" style="points=[[1.013,0.586,0]];html=1;overflow=block;blockSpacing=1;whiteSpace=wrap;fontSize=13;spacing=0;strokeColor=#f2f2f2;strokeOpacity=100;fillOpacity=100;rounded=1;absoluteArcSize=1;arcSize=12;fillColor=#ced4db;strokeWidth=0.8;lucidId=Yu5MsRc69goB;" vertex="1" parent="1">
          <mxGeometry x="1306.5" y="809" width="30" height="80" as="geometry" />
        </mxCell>
        <mxCell id="KeTWmhBXEFS9zP1yrX2H-80" value="" style="html=1;jettySize=18;whiteSpace=wrap;fontSize=13;fontFamily=helvetica;strokeColor=#333333;strokeOpacity=100;dashed=1;fixDash=1;dashPattern=16 6;strokeWidth=0.8;rounded=0;startArrow=none;endArrow=none;exitX=0.598;exitY=1.028;exitPerimeter=0;lucidId=Yu5M4GIAFP0a;exitDx=0;exitDy=0;entryX=0.598;entryY=0.007;entryDx=0;entryDy=0;entryPerimeter=0;" edge="1" parent="1" source="KeTWmhBXEFS9zP1yrX2H-70" target="KeTWmhBXEFS9zP1yrX2H-79">
          <mxGeometry width="100" height="100" relative="1" as="geometry">
            <Array as="points" />
            <mxPoint x="1335" y="265" as="sourcePoint" />
            <mxPoint x="1332" y="650" as="targetPoint" />
          </mxGeometry>
        </mxCell>
        <mxCell id="KeTWmhBXEFS9zP1yrX2H-81" value="" style="html=1;overflow=block;blockSpacing=1;whiteSpace=wrap;fontSize=13;spacing=0;strokeColor=#f2f2f2;strokeOpacity=100;fillOpacity=100;rounded=1;absoluteArcSize=1;arcSize=12;fillColor=#ced4db;strokeWidth=0.8;lucidId=Yu5MhR-oMSno;" vertex="1" parent="1">
          <mxGeometry x="1535" y="808" width="30" height="81" as="geometry" />
        </mxCell>
        <mxCell id="KeTWmhBXEFS9zP1yrX2H-82" value="" style="html=1;jettySize=18;whiteSpace=wrap;fontSize=13;strokeColor=#333333;strokeOpacity=100;strokeWidth=0.8;rounded=1;arcSize=10;edgeStyle=orthogonalEdgeStyle;startArrow=none;endArrow=block;endFill=1;lucidId=Yu5M0A2JVvTe;" edge="1" parent="1">
          <mxGeometry width="100" height="100" relative="1" as="geometry">
            <Array as="points" />
            <mxPoint x="1336.5" y="670" as="sourcePoint" />
            <mxPoint x="1530" y="670" as="targetPoint" />
          </mxGeometry>
        </mxCell>
        <mxCell id="KeTWmhBXEFS9zP1yrX2H-83" value="Se notifiica el nuevo&lt;br&gt;estado de la&lt;br&gt;solicitud" style="text;html=1;resizable=0;labelBackgroundColor=default;align=center;verticalAlign=middle;fontStyle=2;fontColor=#333333;fontSize=13.3;" vertex="1" parent="KeTWmhBXEFS9zP1yrX2H-82">
          <mxGeometry relative="1" as="geometry">
            <mxPoint as="offset" />
          </mxGeometry>
        </mxCell>
        <mxCell id="KeTWmhBXEFS9zP1yrX2H-84" value="" style="html=1;jettySize=18;whiteSpace=wrap;fontSize=13;strokeColor=#333333;strokeOpacity=100;strokeWidth=0.8;rounded=1;arcSize=10;edgeStyle=orthogonalEdgeStyle;startArrow=none;endArrow=block;endFill=1;lucidId=Yu5M0A2JVvTe;" edge="1" parent="1">
          <mxGeometry width="100" height="100" relative="1" as="geometry">
            <Array as="points" />
            <mxPoint x="1336.5" y="840" as="sourcePoint" />
            <mxPoint x="1530" y="840" as="targetPoint" />
          </mxGeometry>
        </mxCell>
        <mxCell id="KeTWmhBXEFS9zP1yrX2H-85" value="Se notifiica el nuevo&lt;br&gt;estado de la&lt;br&gt;solicitud" style="text;html=1;resizable=0;labelBackgroundColor=default;align=center;verticalAlign=middle;fontStyle=2;fontColor=#333333;fontSize=13.3;" vertex="1" parent="KeTWmhBXEFS9zP1yrX2H-84">
          <mxGeometry relative="1" as="geometry">
            <mxPoint as="offset" />
          </mxGeometry>
        </mxCell>
      </root>
    </mxGraphModel>
  </diagram>
</mxfile>
